<svg width="1280" height="848" viewBox="0 0 1280 848" fill="none" xmlns="http://www.w3.org/2000/svg">
<rect width="1280" height="48" rx="4" fill="#558833"/>
<rect y="48" width="1280" height="800" fill="#D9D9D9"/>
<path d="M488.818 36V12.7273H496.955C498.576 12.7273 499.913 13.0076 500.966 13.5682C502.019 14.1212 502.803 14.8674 503.318 15.8068C503.833 16.7386 504.091 17.7727 504.091 18.9091C504.091 19.9091 503.913 20.7348 503.557 21.3864C503.208 22.0379 502.746 22.553 502.17 22.9318C501.602 23.3106 500.985 23.5909 500.318 23.7727V24C501.03 24.0455 501.746 24.2955 502.466 24.75C503.186 25.2045 503.788 25.8561 504.273 26.7045C504.758 27.553 505 28.5909 505 29.8182C505 30.9848 504.735 32.0341 504.205 32.9659C503.674 33.8977 502.837 34.6364 501.693 35.1818C500.549 35.7273 499.061 36 497.227 36H488.818ZM491.636 33.5H497.227C499.068 33.5 500.375 33.1439 501.148 32.4318C501.928 31.7121 502.318 30.8409 502.318 29.8182C502.318 29.0303 502.117 28.303 501.716 27.6364C501.314 26.9621 500.742 26.4242 500 26.0227C499.258 25.6136 498.379 25.4091 497.364 25.4091H491.636V33.5ZM491.636 22.9545H496.864C497.712 22.9545 498.477 22.7879 499.159 22.4545C499.848 22.1212 500.394 21.6515 500.795 21.0455C501.205 20.4394 501.409 19.7273 501.409 18.9091C501.409 17.8864 501.053 17.0189 500.341 16.3068C499.629 15.5871 498.5 15.2273 496.955 15.2273H491.636V22.9545ZM514.403 36.4091C513.297 36.4091 512.294 36.2008 511.392 35.7841C510.491 35.3598 509.775 34.75 509.244 33.9545C508.714 33.1515 508.449 32.1818 508.449 31.0455C508.449 30.0455 508.646 29.2348 509.04 28.6136C509.434 27.9848 509.96 27.4924 510.619 27.1364C511.278 26.7803 512.006 26.5152 512.801 26.3409C513.604 26.1591 514.411 26.0152 515.222 25.9091C516.282 25.7727 517.142 25.6705 517.801 25.6023C518.468 25.5265 518.953 25.4015 519.256 25.2273C519.566 25.053 519.722 24.75 519.722 24.3182V24.2273C519.722 23.1061 519.415 22.2348 518.801 21.6136C518.195 20.9924 517.275 20.6818 516.04 20.6818C514.759 20.6818 513.756 20.9621 513.028 21.5227C512.301 22.0833 511.79 22.6818 511.494 23.3182L508.949 22.4091C509.403 21.3485 510.009 20.5227 510.767 19.9318C511.532 19.3333 512.366 18.9167 513.267 18.6818C514.176 18.4394 515.07 18.3182 515.949 18.3182C516.509 18.3182 517.153 18.3864 517.881 18.5227C518.616 18.6515 519.324 18.9205 520.006 19.3295C520.695 19.7386 521.267 20.3561 521.722 21.1818C522.176 22.0076 522.403 23.1136 522.403 24.5V36H519.722V33.6364H519.585C519.403 34.0152 519.1 34.4205 518.676 34.8523C518.252 35.2841 517.688 35.6515 516.983 35.9545C516.278 36.2576 515.419 36.4091 514.403 36.4091ZM514.812 34C515.873 34 516.767 33.7917 517.494 33.375C518.229 32.9583 518.782 32.4205 519.153 31.7614C519.532 31.1023 519.722 30.4091 519.722 29.6818V27.2273C519.608 27.3636 519.358 27.4886 518.972 27.6023C518.593 27.7083 518.153 27.803 517.653 27.8864C517.161 27.9621 516.68 28.0303 516.21 28.0909C515.748 28.1439 515.373 28.1894 515.085 28.2273C514.388 28.3182 513.737 28.4659 513.131 28.6705C512.532 28.8674 512.047 29.1667 511.676 29.5682C511.313 29.9621 511.131 30.5 511.131 31.1818C511.131 32.1136 511.475 32.8182 512.165 33.2955C512.862 33.7652 513.744 34 514.812 34ZM527.298 36V18.5455H529.889V21.1818H530.071C530.389 20.3182 530.965 19.6174 531.798 19.0795C532.632 18.5417 533.571 18.2727 534.616 18.2727C534.813 18.2727 535.06 18.2765 535.355 18.2841C535.651 18.2917 535.874 18.303 536.026 18.3182V21.0455C535.935 21.0227 535.726 20.9886 535.401 20.9432C535.082 20.8902 534.745 20.8636 534.389 20.8636C533.541 20.8636 532.783 21.0417 532.116 21.3977C531.457 21.7462 530.935 22.2311 530.548 22.8523C530.17 23.4659 529.98 24.1667 529.98 24.9545V36H527.298ZM539.205 36V18.5455H541.795V21.1818H541.977C542.295 20.3182 542.871 19.6174 543.705 19.0795C544.538 18.5417 545.477 18.2727 546.523 18.2727C546.72 18.2727 546.966 18.2765 547.261 18.2841C547.557 18.2917 547.78 18.303 547.932 18.3182V21.0455C547.841 21.0227 547.633 20.9886 547.307 20.9432C546.989 20.8902 546.652 20.8636 546.295 20.8636C545.447 20.8636 544.689 21.0417 544.023 21.3977C543.364 21.7462 542.841 22.2311 542.455 22.8523C542.076 23.4659 541.886 24.1667 541.886 24.9545V36H539.205ZM556.247 36.4091C555.141 36.4091 554.137 36.2008 553.236 35.7841C552.334 35.3598 551.618 34.75 551.088 33.9545C550.558 33.1515 550.293 32.1818 550.293 31.0455C550.293 30.0455 550.49 29.2348 550.884 28.6136C551.277 27.9848 551.804 27.4924 552.463 27.1364C553.122 26.7803 553.849 26.5152 554.645 26.3409C555.448 26.1591 556.255 26.0152 557.065 25.9091C558.126 25.7727 558.986 25.6705 559.645 25.6023C560.312 25.5265 560.796 25.4015 561.099 25.2273C561.41 25.053 561.565 24.75 561.565 24.3182V24.2273C561.565 23.1061 561.259 22.2348 560.645 21.6136C560.039 20.9924 559.118 20.6818 557.884 20.6818C556.603 20.6818 555.599 20.9621 554.872 21.5227C554.145 22.0833 553.634 22.6818 553.338 23.3182L550.793 22.4091C551.247 21.3485 551.853 20.5227 552.611 19.9318C553.376 19.3333 554.209 18.9167 555.111 18.6818C556.02 18.4394 556.914 18.3182 557.793 18.3182C558.353 18.3182 558.997 18.3864 559.724 18.5227C560.459 18.6515 561.168 18.9205 561.849 19.3295C562.539 19.7386 563.111 20.3561 563.565 21.1818C564.02 22.0076 564.247 23.1136 564.247 24.5V36H561.565V33.6364H561.429C561.247 34.0152 560.944 34.4205 560.52 34.8523C560.096 35.2841 559.531 35.6515 558.827 35.9545C558.122 36.2576 557.262 36.4091 556.247 36.4091ZM556.656 34C557.717 34 558.611 33.7917 559.338 33.375C560.073 32.9583 560.626 32.4205 560.997 31.7614C561.376 31.1023 561.565 30.4091 561.565 29.6818V27.2273C561.452 27.3636 561.202 27.4886 560.815 27.6023C560.437 27.7083 559.997 27.803 559.497 27.8864C559.005 27.9621 558.524 28.0303 558.054 28.0909C557.592 28.1439 557.217 28.1894 556.929 28.2273C556.232 28.3182 555.58 28.4659 554.974 28.6705C554.376 28.8674 553.891 29.1667 553.52 29.5682C553.156 29.9621 552.974 30.5 552.974 31.1818C552.974 32.1136 553.319 32.8182 554.009 33.2955C554.705 33.7652 555.588 34 556.656 34ZM584.733 36.3636C583.278 36.3636 581.994 35.9962 580.881 35.2614C579.767 34.5189 578.896 33.4735 578.267 32.125C577.638 30.7689 577.324 29.1667 577.324 27.3182C577.324 25.4848 577.638 23.8939 578.267 22.5455C578.896 21.197 579.771 20.1553 580.892 19.4205C582.013 18.6856 583.309 18.3182 584.778 18.3182C585.915 18.3182 586.813 18.5076 587.472 18.8864C588.138 19.2576 588.646 19.6818 588.994 20.1591C589.35 20.6288 589.627 21.0152 589.824 21.3182H590.051V12.7273H592.733V36H590.142V33.3182H589.824C589.627 33.6364 589.347 34.0379 588.983 34.5227C588.619 35 588.1 35.428 587.426 35.8068C586.752 36.178 585.854 36.3636 584.733 36.3636ZM585.097 33.9545C586.172 33.9545 587.081 33.6742 587.824 33.1136C588.566 32.5455 589.131 31.7614 589.517 30.7614C589.903 29.7538 590.097 28.5909 590.097 27.2727C590.097 25.9697 589.907 24.8295 589.528 23.8523C589.15 22.8674 588.589 22.1023 587.847 21.5568C587.104 21.0038 586.188 20.7273 585.097 20.7273C583.96 20.7273 583.013 21.0189 582.256 21.6023C581.506 22.178 580.941 22.9621 580.562 23.9545C580.191 24.9394 580.006 26.0455 580.006 27.2727C580.006 28.5152 580.195 29.6439 580.574 30.6591C580.96 31.6667 581.528 32.4697 582.278 33.0682C583.036 33.6591 583.975 33.9545 585.097 33.9545ZM605.335 36.3636C603.653 36.3636 602.203 35.9924 600.983 35.25C599.771 34.5 598.835 33.4545 598.176 32.1136C597.525 30.7652 597.199 29.197 597.199 27.4091C597.199 25.6212 597.525 24.0455 598.176 22.6818C598.835 21.3106 599.752 20.2424 600.926 19.4773C602.108 18.7045 603.487 18.3182 605.062 18.3182C605.972 18.3182 606.869 18.4697 607.756 18.7727C608.642 19.0758 609.449 19.5682 610.176 20.25C610.903 20.9242 611.483 21.8182 611.915 22.9318C612.347 24.0455 612.562 25.4167 612.562 27.0455V28.1818H599.108V25.8636H609.835C609.835 24.8788 609.638 24 609.244 23.2273C608.858 22.4545 608.305 21.8447 607.585 21.3977C606.873 20.9508 606.032 20.7273 605.062 20.7273C603.994 20.7273 603.07 20.9924 602.29 21.5227C601.517 22.0455 600.922 22.7273 600.506 23.5682C600.089 24.4091 599.881 25.3106 599.881 26.2727V27.8182C599.881 29.1364 600.108 30.2538 600.562 31.1705C601.025 32.0795 601.665 32.7727 602.483 33.25C603.301 33.7197 604.252 33.9545 605.335 33.9545C606.04 33.9545 606.676 33.8561 607.244 33.6591C607.82 33.4545 608.316 33.1515 608.733 32.75C609.15 32.3409 609.472 31.8333 609.699 31.2273L612.29 31.9545C612.017 32.8333 611.559 33.6061 610.915 34.2727C610.271 34.9318 609.475 35.447 608.528 35.8182C607.581 36.1818 606.517 36.3636 605.335 36.3636ZM644.46 12.7273V36H641.733L629.051 17.7273H628.824V36H626.006V12.7273H628.733L641.46 31.0455H641.688V12.7273H644.46ZM654.872 36.4091C653.766 36.4091 652.762 36.2008 651.861 35.7841C650.959 35.3598 650.243 34.75 649.713 33.9545C649.183 33.1515 648.918 32.1818 648.918 31.0455C648.918 30.0455 649.115 29.2348 649.509 28.6136C649.902 27.9848 650.429 27.4924 651.088 27.1364C651.747 26.7803 652.474 26.5152 653.27 26.3409C654.073 26.1591 654.88 26.0152 655.69 25.9091C656.751 25.7727 657.611 25.6705 658.27 25.6023C658.937 25.5265 659.421 25.4015 659.724 25.2273C660.035 25.053 660.19 24.75 660.19 24.3182V24.2273C660.19 23.1061 659.884 22.2348 659.27 21.6136C658.664 20.9924 657.743 20.6818 656.509 20.6818C655.228 20.6818 654.224 20.9621 653.497 21.5227C652.77 22.0833 652.259 22.6818 651.963 23.3182L649.418 22.4091C649.872 21.3485 650.478 20.5227 651.236 19.9318C652.001 19.3333 652.834 18.9167 653.736 18.6818C654.645 18.4394 655.539 18.3182 656.418 18.3182C656.978 18.3182 657.622 18.3864 658.349 18.5227C659.084 18.6515 659.793 18.9205 660.474 19.3295C661.164 19.7386 661.736 20.3561 662.19 21.1818C662.645 22.0076 662.872 23.1136 662.872 24.5V36H660.19V33.6364H660.054C659.872 34.0152 659.569 34.4205 659.145 34.8523C658.721 35.2841 658.156 35.6515 657.452 35.9545C656.747 36.2576 655.887 36.4091 654.872 36.4091ZM655.281 34C656.342 34 657.236 33.7917 657.963 33.375C658.698 32.9583 659.251 32.4205 659.622 31.7614C660.001 31.1023 660.19 30.4091 660.19 29.6818V27.2273C660.077 27.3636 659.827 27.4886 659.44 27.6023C659.062 27.7083 658.622 27.803 658.122 27.8864C657.63 27.9621 657.149 28.0303 656.679 28.0909C656.217 28.1439 655.842 28.1894 655.554 28.2273C654.857 28.3182 654.205 28.4659 653.599 28.6705C653.001 28.8674 652.516 29.1667 652.145 29.5682C651.781 29.9621 651.599 30.5 651.599 31.1818C651.599 32.1136 651.944 32.8182 652.634 33.2955C653.33 33.7652 654.213 34 655.281 34ZM681.415 18.5455L674.96 36H672.233L665.778 18.5455H668.688L673.506 32.4545H673.688L678.506 18.5455H681.415ZM691.648 36.3636C689.966 36.3636 688.515 35.9924 687.295 35.25C686.083 34.5 685.148 33.4545 684.489 32.1136C683.837 30.7652 683.511 29.197 683.511 27.4091C683.511 25.6212 683.837 24.0455 684.489 22.6818C685.148 21.3106 686.064 20.2424 687.239 19.4773C688.42 18.7045 689.799 18.3182 691.375 18.3182C692.284 18.3182 693.182 18.4697 694.068 18.7727C694.955 19.0758 695.761 19.5682 696.489 20.25C697.216 20.9242 697.795 21.8182 698.227 22.9318C698.659 24.0455 698.875 25.4167 698.875 27.0455V28.1818H685.42V25.8636H696.148C696.148 24.8788 695.951 24 695.557 23.2273C695.17 22.4545 694.617 21.8447 693.898 21.3977C693.186 20.9508 692.345 20.7273 691.375 20.7273C690.307 20.7273 689.383 20.9924 688.602 21.5227C687.83 22.0455 687.235 22.7273 686.818 23.5682C686.402 24.4091 686.193 25.3106 686.193 26.2727V27.8182C686.193 29.1364 686.42 30.2538 686.875 31.1705C687.337 32.0795 687.977 32.7727 688.795 33.25C689.614 33.7197 690.564 33.9545 691.648 33.9545C692.352 33.9545 692.989 33.8561 693.557 33.6591C694.133 33.4545 694.629 33.1515 695.045 32.75C695.462 32.3409 695.784 31.8333 696.011 31.2273L698.602 31.9545C698.33 32.8333 697.871 33.6061 697.227 34.2727C696.583 34.9318 695.788 35.447 694.841 35.8182C693.894 36.1818 692.83 36.3636 691.648 36.3636ZM710 42.9091C708.705 42.9091 707.591 42.7424 706.659 42.4091C705.727 42.0833 704.951 41.6515 704.33 41.1136C703.716 40.5833 703.227 40.0152 702.864 39.4091L705 37.9091C705.242 38.2273 705.549 38.5909 705.92 39C706.292 39.4167 706.799 39.7765 707.443 40.0795C708.095 40.3902 708.947 40.5455 710 40.5455C711.409 40.5455 712.572 40.2045 713.489 39.5227C714.405 38.8409 714.864 37.7727 714.864 36.3182V32.7727H714.636C714.439 33.0909 714.159 33.4848 713.795 33.9545C713.439 34.4167 712.924 34.8295 712.25 35.1932C711.583 35.5492 710.682 35.7273 709.545 35.7273C708.136 35.7273 706.871 35.3939 705.75 34.7273C704.636 34.0606 703.754 33.0909 703.102 31.8182C702.458 30.5455 702.136 29 702.136 27.1818C702.136 25.3939 702.451 23.8371 703.08 22.5114C703.708 21.178 704.583 20.1477 705.705 19.4205C706.826 18.6856 708.121 18.3182 709.591 18.3182C710.727 18.3182 711.629 18.5076 712.295 18.8864C712.97 19.2576 713.485 19.6818 713.841 20.1591C714.205 20.6288 714.485 21.0152 714.682 21.3182H714.955V18.5455H717.545V36.5C717.545 38 717.205 39.2197 716.523 40.1591C715.848 41.1061 714.939 41.7992 713.795 42.2386C712.659 42.6856 711.394 42.9091 710 42.9091ZM709.909 33.3182C710.985 33.3182 711.894 33.072 712.636 32.5795C713.379 32.0871 713.943 31.3788 714.33 30.4545C714.716 29.5303 714.909 28.4242 714.909 27.1364C714.909 25.8788 714.72 24.7689 714.341 23.8068C713.962 22.8447 713.402 22.0909 712.659 21.5455C711.917 21 711 20.7273 709.909 20.7273C708.773 20.7273 707.826 21.0152 707.068 21.5909C706.318 22.1667 705.754 22.9394 705.375 23.9091C705.004 24.8788 704.818 25.9545 704.818 27.1364C704.818 28.3485 705.008 29.4205 705.386 30.3523C705.773 31.2765 706.341 32.0038 707.091 32.5341C707.848 33.0568 708.788 33.3182 709.909 33.3182ZM727.591 36.4091C726.485 36.4091 725.481 36.2008 724.58 35.7841C723.678 35.3598 722.962 34.75 722.432 33.9545C721.902 33.1515 721.636 32.1818 721.636 31.0455C721.636 30.0455 721.833 29.2348 722.227 28.6136C722.621 27.9848 723.148 27.4924 723.807 27.1364C724.466 26.7803 725.193 26.5152 725.989 26.3409C726.792 26.1591 727.598 26.0152 728.409 25.9091C729.47 25.7727 730.33 25.6705 730.989 25.6023C731.655 25.5265 732.14 25.4015 732.443 25.2273C732.754 25.053 732.909 24.75 732.909 24.3182V24.2273C732.909 23.1061 732.602 22.2348 731.989 21.6136C731.383 20.9924 730.462 20.6818 729.227 20.6818C727.947 20.6818 726.943 20.9621 726.216 21.5227C725.489 22.0833 724.977 22.6818 724.682 23.3182L722.136 22.4091C722.591 21.3485 723.197 20.5227 723.955 19.9318C724.72 19.3333 725.553 18.9167 726.455 18.6818C727.364 18.4394 728.258 18.3182 729.136 18.3182C729.697 18.3182 730.341 18.3864 731.068 18.5227C731.803 18.6515 732.511 18.9205 733.193 19.3295C733.883 19.7386 734.455 20.3561 734.909 21.1818C735.364 22.0076 735.591 23.1136 735.591 24.5V36H732.909V33.6364H732.773C732.591 34.0152 732.288 34.4205 731.864 34.8523C731.439 35.2841 730.875 35.6515 730.17 35.9545C729.466 36.2576 728.606 36.4091 727.591 36.4091ZM728 34C729.061 34 729.955 33.7917 730.682 33.375C731.417 32.9583 731.97 32.4205 732.341 31.7614C732.72 31.1023 732.909 30.4091 732.909 29.6818V27.2273C732.795 27.3636 732.545 27.4886 732.159 27.6023C731.78 27.7083 731.341 27.803 730.841 27.8864C730.348 27.9621 729.867 28.0303 729.398 28.0909C728.936 28.1439 728.561 28.1894 728.273 28.2273C727.576 28.3182 726.924 28.4659 726.318 28.6705C725.72 28.8674 725.235 29.1667 724.864 29.5682C724.5 29.9621 724.318 30.5 724.318 31.1818C724.318 32.1136 724.663 32.8182 725.352 33.2955C726.049 33.7652 726.932 34 728 34ZM747.577 36.3636C745.94 36.3636 744.531 35.9773 743.349 35.2045C742.168 34.4318 741.259 33.3674 740.622 32.0114C739.986 30.6553 739.668 29.1061 739.668 27.3636C739.668 25.5909 739.993 24.0265 740.645 22.6705C741.304 21.3068 742.221 20.2424 743.395 19.4773C744.577 18.7045 745.955 18.3182 747.531 18.3182C748.759 18.3182 749.865 18.5455 750.849 19C751.834 19.4545 752.641 20.0909 753.27 20.9091C753.899 21.7273 754.289 22.6818 754.44 23.7727H751.759C751.554 22.9773 751.099 22.2727 750.395 21.6591C749.698 21.0379 748.759 20.7273 747.577 20.7273C746.531 20.7273 745.615 21 744.827 21.5455C744.046 22.0833 743.437 22.8447 742.997 23.8295C742.565 24.8068 742.349 25.9545 742.349 27.2727C742.349 28.6212 742.562 29.7955 742.986 30.7955C743.418 31.7955 744.024 32.572 744.804 33.125C745.592 33.678 746.516 33.9545 747.577 33.9545C748.274 33.9545 748.906 33.8333 749.474 33.5909C750.043 33.3485 750.524 33 750.918 32.5455C751.312 32.0909 751.592 31.5455 751.759 30.9091H754.44C754.289 31.9394 753.914 32.8674 753.315 33.6932C752.724 34.5114 751.94 35.1629 750.963 35.6477C749.993 36.125 748.865 36.3636 747.577 36.3636ZM746.304 35.9091H748.531L748.349 36.8182C748.94 36.9091 749.482 37.1553 749.974 37.5568C750.467 37.9659 750.713 38.6136 750.713 39.5C750.713 40.4773 750.308 41.2727 749.497 41.8864C748.694 42.5076 747.509 42.8182 745.94 42.8182L745.849 41.0455C746.554 41.0455 747.137 40.9318 747.599 40.7045C748.069 40.4848 748.304 40.1136 748.304 39.5909C748.304 39.0682 748.111 38.7121 747.724 38.5227C747.338 38.3333 746.713 38.2045 745.849 38.1364L746.304 35.9091ZM763.497 36.4091C762.391 36.4091 761.387 36.2008 760.486 35.7841C759.584 35.3598 758.868 34.75 758.338 33.9545C757.808 33.1515 757.543 32.1818 757.543 31.0455C757.543 30.0455 757.74 29.2348 758.134 28.6136C758.527 27.9848 759.054 27.4924 759.713 27.1364C760.372 26.7803 761.099 26.5152 761.895 26.3409C762.698 26.1591 763.505 26.0152 764.315 25.9091C765.376 25.7727 766.236 25.6705 766.895 25.6023C767.562 25.5265 768.046 25.4015 768.349 25.2273C768.66 25.053 768.815 24.75 768.815 24.3182V24.2273C768.815 23.1061 768.509 22.2348 767.895 21.6136C767.289 20.9924 766.368 20.6818 765.134 20.6818C763.853 20.6818 762.849 20.9621 762.122 21.5227C761.395 22.0833 760.884 22.6818 760.588 23.3182L758.043 22.4091C758.497 21.3485 759.103 20.5227 759.861 19.9318C760.626 19.3333 761.459 18.9167 762.361 18.6818C763.27 18.4394 764.164 18.3182 765.043 18.3182C765.603 18.3182 766.247 18.3864 766.974 18.5227C767.709 18.6515 768.418 18.9205 769.099 19.3295C769.789 19.7386 770.361 20.3561 770.815 21.1818C771.27 22.0076 771.497 23.1136 771.497 24.5V36H768.815V33.6364H768.679C768.497 34.0152 768.194 34.4205 767.77 34.8523C767.346 35.2841 766.781 35.6515 766.077 35.9545C765.372 36.2576 764.512 36.4091 763.497 36.4091ZM763.906 34C764.967 34 765.861 33.7917 766.588 33.375C767.323 32.9583 767.876 32.4205 768.247 31.7614C768.626 31.1023 768.815 30.4091 768.815 29.6818V27.2273C768.702 27.3636 768.452 27.4886 768.065 27.6023C767.687 27.7083 767.247 27.803 766.747 27.8864C766.255 27.9621 765.774 28.0303 765.304 28.0909C764.842 28.1439 764.467 28.1894 764.179 28.2273C763.482 28.3182 762.83 28.4659 762.224 28.6705C761.626 28.8674 761.141 29.1667 760.77 29.5682C760.406 29.9621 760.224 30.5 760.224 31.1818C760.224 32.1136 760.569 32.8182 761.259 33.2955C761.955 33.7652 762.838 34 763.906 34ZM761.724 16.4545L759.634 16.3636C759.634 15.2045 759.963 14.2576 760.622 13.5227C761.289 12.7803 762.111 12.4091 763.088 12.4091C763.52 12.4091 763.902 12.4848 764.236 12.6364C764.569 12.7803 764.887 12.947 765.19 13.1364C765.493 13.3258 765.804 13.4962 766.122 13.6477C766.448 13.7917 766.815 13.8636 767.224 13.8636C767.656 13.8636 768.02 13.697 768.315 13.3636C768.618 13.0227 768.77 12.6136 768.77 12.1364L770.815 12.3182C770.815 13.5 770.482 14.4394 769.815 15.1364C769.156 15.8333 768.338 16.1818 767.361 16.1818C766.838 16.1818 766.406 16.1098 766.065 15.9659C765.724 15.8144 765.421 15.6439 765.156 15.4545C764.891 15.2652 764.611 15.0985 764.315 14.9545C764.02 14.803 763.656 14.7273 763.224 14.7273C762.793 14.7273 762.433 14.8977 762.145 15.2386C761.865 15.572 761.724 15.9773 761.724 16.4545ZM783.483 36.3636C781.907 36.3636 780.525 35.9886 779.335 35.2386C778.153 34.4886 777.229 33.4394 776.562 32.0909C775.903 30.7424 775.574 29.1667 775.574 27.3636C775.574 25.5455 775.903 23.9583 776.562 22.6023C777.229 21.2462 778.153 20.1932 779.335 19.4432C780.525 18.6932 781.907 18.3182 783.483 18.3182C785.059 18.3182 786.438 18.6932 787.619 19.4432C788.809 20.1932 789.733 21.2462 790.392 22.6023C791.059 23.9583 791.392 25.5455 791.392 27.3636C791.392 29.1667 791.059 30.7424 790.392 32.0909C789.733 33.4394 788.809 34.4886 787.619 35.2386C786.438 35.9886 785.059 36.3636 783.483 36.3636ZM783.483 33.9545C784.68 33.9545 785.665 33.6477 786.438 33.0341C787.21 32.4205 787.782 31.6136 788.153 30.6136C788.525 29.6136 788.71 28.5303 788.71 27.3636C788.71 26.197 788.525 25.1098 788.153 24.1023C787.782 23.0947 787.21 22.2803 786.438 21.6591C785.665 21.0379 784.68 20.7273 783.483 20.7273C782.286 20.7273 781.301 21.0379 780.528 21.6591C779.756 22.2803 779.184 23.0947 778.812 24.1023C778.441 25.1098 778.256 26.197 778.256 27.3636C778.256 28.5303 778.441 29.6136 778.812 30.6136C779.184 31.6136 779.756 32.4205 780.528 33.0341C781.301 33.6477 782.286 33.9545 783.483 33.9545Z" fill="black"/>
<path d="M587.545 444H584.727C584.561 443.189 584.269 442.477 583.852 441.864C583.443 441.25 582.943 440.735 582.352 440.318C581.769 439.894 581.121 439.576 580.409 439.364C579.697 439.152 578.955 439.045 578.182 439.045C576.773 439.045 575.496 439.402 574.352 440.114C573.216 440.826 572.311 441.875 571.636 443.261C570.97 444.648 570.636 446.348 570.636 448.364C570.636 450.379 570.97 452.08 571.636 453.466C572.311 454.852 573.216 455.902 574.352 456.614C575.496 457.326 576.773 457.682 578.182 457.682C578.955 457.682 579.697 457.576 580.409 457.364C581.121 457.152 581.769 456.837 582.352 456.42C582.943 455.996 583.443 455.477 583.852 454.864C584.269 454.242 584.561 453.53 584.727 452.727H587.545C587.333 453.917 586.947 454.981 586.386 455.92C585.826 456.86 585.129 457.659 584.295 458.318C583.462 458.97 582.527 459.466 581.489 459.807C580.458 460.148 579.356 460.318 578.182 460.318C576.197 460.318 574.432 459.833 572.886 458.864C571.341 457.894 570.125 456.515 569.239 454.727C568.352 452.939 567.909 450.818 567.909 448.364C567.909 445.909 568.352 443.788 569.239 442C570.125 440.212 571.341 438.833 572.886 437.864C574.432 436.894 576.197 436.409 578.182 436.409C579.356 436.409 580.458 436.58 581.489 436.92C582.527 437.261 583.462 437.761 584.295 438.42C585.129 439.072 585.826 439.867 586.386 440.807C586.947 441.739 587.333 442.803 587.545 444ZM598.827 460.364C597.251 460.364 595.868 459.989 594.679 459.239C593.497 458.489 592.573 457.439 591.906 456.091C591.247 454.742 590.918 453.167 590.918 451.364C590.918 449.545 591.247 447.958 591.906 446.602C592.573 445.246 593.497 444.193 594.679 443.443C595.868 442.693 597.251 442.318 598.827 442.318C600.402 442.318 601.781 442.693 602.963 443.443C604.152 444.193 605.077 445.246 605.736 446.602C606.402 447.958 606.736 449.545 606.736 451.364C606.736 453.167 606.402 454.742 605.736 456.091C605.077 457.439 604.152 458.489 602.963 459.239C601.781 459.989 600.402 460.364 598.827 460.364ZM598.827 457.955C600.024 457.955 601.009 457.648 601.781 457.034C602.554 456.42 603.126 455.614 603.497 454.614C603.868 453.614 604.054 452.53 604.054 451.364C604.054 450.197 603.868 449.11 603.497 448.102C603.126 447.095 602.554 446.28 601.781 445.659C601.009 445.038 600.024 444.727 598.827 444.727C597.63 444.727 596.645 445.038 595.872 445.659C595.099 446.28 594.527 447.095 594.156 448.102C593.785 449.11 593.599 450.197 593.599 451.364C593.599 452.53 593.785 453.614 594.156 454.614C594.527 455.614 595.099 456.42 595.872 457.034C596.645 457.648 597.63 457.955 598.827 457.955ZM613.511 449.5V460H610.83V442.545H613.42V445.273H613.648C614.057 444.386 614.678 443.674 615.511 443.136C616.345 442.591 617.42 442.318 618.739 442.318C619.92 442.318 620.955 442.561 621.841 443.045C622.727 443.523 623.417 444.25 623.909 445.227C624.402 446.197 624.648 447.424 624.648 448.909V460H621.966V449.091C621.966 447.72 621.61 446.652 620.898 445.886C620.186 445.114 619.208 444.727 617.966 444.727C617.11 444.727 616.345 444.913 615.67 445.284C615.004 445.655 614.477 446.197 614.091 446.909C613.705 447.621 613.511 448.485 613.511 449.5ZM637.139 442.545V444.818H628.094V442.545H637.139ZM630.73 438.364H633.412V455C633.412 455.758 633.522 456.326 633.741 456.705C633.969 457.076 634.257 457.326 634.605 457.455C634.961 457.576 635.336 457.636 635.73 457.636C636.026 457.636 636.268 457.621 636.457 457.591C636.647 457.553 636.798 457.523 636.912 457.5L637.457 459.909C637.276 459.977 637.022 460.045 636.696 460.114C636.37 460.189 635.957 460.227 635.457 460.227C634.7 460.227 633.957 460.064 633.23 459.739C632.51 459.413 631.912 458.917 631.435 458.25C630.965 457.583 630.73 456.742 630.73 455.727V438.364ZM648.304 460.364C646.622 460.364 645.171 459.992 643.952 459.25C642.74 458.5 641.804 457.455 641.145 456.114C640.493 454.765 640.168 453.197 640.168 451.409C640.168 449.621 640.493 448.045 641.145 446.682C641.804 445.311 642.721 444.242 643.895 443.477C645.077 442.705 646.455 442.318 648.031 442.318C648.94 442.318 649.838 442.47 650.724 442.773C651.611 443.076 652.418 443.568 653.145 444.25C653.872 444.924 654.452 445.818 654.884 446.932C655.315 448.045 655.531 449.417 655.531 451.045V452.182H642.077V449.864H652.804C652.804 448.879 652.607 448 652.213 447.227C651.827 446.455 651.274 445.845 650.554 445.398C649.842 444.951 649.001 444.727 648.031 444.727C646.963 444.727 646.039 444.992 645.259 445.523C644.486 446.045 643.891 446.727 643.474 447.568C643.058 448.409 642.849 449.311 642.849 450.273V451.818C642.849 453.136 643.077 454.254 643.531 455.17C643.993 456.08 644.634 456.773 645.452 457.25C646.27 457.72 647.221 457.955 648.304 457.955C649.009 457.955 649.645 457.856 650.213 457.659C650.789 457.455 651.285 457.152 651.702 456.75C652.118 456.341 652.44 455.833 652.668 455.227L655.259 455.955C654.986 456.833 654.527 457.606 653.884 458.273C653.24 458.932 652.444 459.447 651.497 459.818C650.55 460.182 649.486 460.364 648.304 460.364ZM670.611 452.864V442.545H673.293V460H670.611V457.045H670.429C670.02 457.932 669.384 458.686 668.52 459.307C667.656 459.92 666.565 460.227 665.247 460.227C664.156 460.227 663.187 459.989 662.338 459.511C661.49 459.027 660.823 458.299 660.338 457.33C659.853 456.352 659.611 455.121 659.611 453.636V442.545H662.293V453.455C662.293 454.727 662.649 455.742 663.361 456.5C664.08 457.258 664.997 457.636 666.111 457.636C666.777 457.636 667.455 457.466 668.145 457.125C668.842 456.784 669.425 456.261 669.895 455.557C670.372 454.852 670.611 453.955 670.611 452.864ZM665.247 440.182L668.02 434.909H671.156L667.611 440.182H665.247ZM684.795 460.364C683.341 460.364 682.057 459.996 680.943 459.261C679.83 458.519 678.958 457.473 678.33 456.125C677.701 454.769 677.386 453.167 677.386 451.318C677.386 449.485 677.701 447.894 678.33 446.545C678.958 445.197 679.833 444.155 680.955 443.42C682.076 442.686 683.371 442.318 684.841 442.318C685.977 442.318 686.875 442.508 687.534 442.886C688.201 443.258 688.708 443.682 689.057 444.159C689.413 444.629 689.689 445.015 689.886 445.318H690.114V436.727H692.795V460H690.205V457.318H689.886C689.689 457.636 689.409 458.038 689.045 458.523C688.682 459 688.163 459.428 687.489 459.807C686.814 460.178 685.917 460.364 684.795 460.364ZM685.159 457.955C686.235 457.955 687.144 457.674 687.886 457.114C688.629 456.545 689.193 455.761 689.58 454.761C689.966 453.754 690.159 452.591 690.159 451.273C690.159 449.97 689.97 448.83 689.591 447.852C689.212 446.867 688.652 446.102 687.909 445.557C687.167 445.004 686.25 444.727 685.159 444.727C684.023 444.727 683.076 445.019 682.318 445.602C681.568 446.178 681.004 446.962 680.625 447.955C680.254 448.939 680.068 450.045 680.068 451.273C680.068 452.515 680.258 453.644 680.636 454.659C681.023 455.667 681.591 456.47 682.341 457.068C683.098 457.659 684.038 457.955 685.159 457.955ZM705.17 460.364C703.595 460.364 702.212 459.989 701.023 459.239C699.841 458.489 698.917 457.439 698.25 456.091C697.591 454.742 697.261 453.167 697.261 451.364C697.261 449.545 697.591 447.958 698.25 446.602C698.917 445.246 699.841 444.193 701.023 443.443C702.212 442.693 703.595 442.318 705.17 442.318C706.746 442.318 708.125 442.693 709.307 443.443C710.496 444.193 711.42 445.246 712.08 446.602C712.746 447.958 713.08 449.545 713.08 451.364C713.08 453.167 712.746 454.742 712.08 456.091C711.42 457.439 710.496 458.489 709.307 459.239C708.125 459.989 706.746 460.364 705.17 460.364ZM705.17 457.955C706.367 457.955 707.352 457.648 708.125 457.034C708.898 456.42 709.47 455.614 709.841 454.614C710.212 453.614 710.398 452.53 710.398 451.364C710.398 450.197 710.212 449.11 709.841 448.102C709.47 447.095 708.898 446.28 708.125 445.659C707.352 445.038 706.367 444.727 705.17 444.727C703.973 444.727 702.989 445.038 702.216 445.659C701.443 446.28 700.871 447.095 700.5 448.102C700.129 449.11 699.943 450.197 699.943 451.364C699.943 452.53 700.129 453.614 700.5 454.614C700.871 455.614 701.443 456.42 702.216 457.034C702.989 457.648 703.973 457.955 705.17 457.955Z" fill="black"/>
</svg>
